<?xml version="1.0" encoding="UTF-8"?>
<svg id="Layer_1" xmlns="http://www.w3.org/2000/svg" version="1.1" viewBox="0 0 131.9 76.4">
  <!-- Generator: Adobe Illustrator 29.0.1, SVG Export Plug-In . SVG Version: 2.1.0 Build 192)  -->
  <defs>
    <style>
      .st0 {
        fill: #36454f;
      }

      .st1 {
        fill: #f08421;
      }
    </style>
  </defs>
  <path class="st0" d="M121.5,40.2l8.4,19.6h-19.9l-8.1-18.8h-11.2l-16.7-.2-.2-.4c5-3.8,8.2-9.3,9.4-15.2h26.7c3.4,0,5.3-1.6,5.8-4.8.5-3.2-1-5-4.6-5.6h-22.1c0,0-88.9,0-88.9,0L1.5,0h112.2c12.5,2.1,18.4,8.8,17.8,20.3-.2,8.4-3.5,15-10,19.9Z"/>
  <path class="st1" d="M66.2,17.7l-.9,1.4c0,0,0,.2,0,.3-.5,3.2-2.4,4.8-5.8,4.8H23.8s.5-6.5.5-6.5H6.2l-4,40.9h17.9s1.8-18.7,1.8-18.7h29.5l8.1,18.8h19.9l-8.4-19.7c6.5-4.9,9.8-11.5,10-19.9h0c0,0,.1-1.5.1-1.5h-15Z"/>
  <g>
    <path class="st0" d="M7.9,72.7s0,0,.1-.1c0,0,0-.1,0-.2s0-.2-.1-.4c-.3-.8-.9-1.4-1.6-1.8-.7-.4-1.7-.7-2.8-.7h-.2c-.2,0-.4,0-.4,0,0,0-.1,0-.1.1,0,0,0,.2,0,.3v2c0,.3,0,.5,0,.6,0,.1,0,.2.2.3,0,0,0,0,0,0H.9s0,0,0,0c0,0,.1-.1.1-.3,0-.1,0-.3,0-.6v-7.2c0-.3,0-.5,0-.6s0-.2-.2-.3c0,0,0,0,0,0h4.9c1.3,0,2.2.2,2.8.7.5.5.8,1.2.8,2.1s-.2,1.2-.6,1.6c-.4.5-1,.8-1.8.9h0c1.1.3,2.1,1.2,3,2.6.2.3.3.5.5.7.2.2.3.3.4.3.1,0,.2,0,.2,0h-3.1s0,0,.1,0ZM2.9,67.8c0,.1,0,.2,0,.3,0,0,0,0,.1,0,0,0,.2,0,.4,0h1.8c1.6,0,2.4-.6,2.4-1.7s-.2-1-.5-1.2c-.4-.2-.9-.4-1.7-.4h-2c-.2,0-.4,0-.4,0,0,0-.1,0-.1,0,0,0,0,.1,0,.3v2.5Z"/>
    <path class="st0" d="M18.4,68.9v.7s-.1,0-.3,0c-.2,0-.7,0-1.4,0h-3.9c0,.8.2,1.3.7,1.8.4.4,1.1.6,1.9.6s1.1,0,1.5-.2c.4-.1.7-.3.9-.4.2-.1.3-.2.3-.2v1.3c.1,0,0,0-.2.2-.3,0-.6.2-1.1.3-.5,0-1,.1-1.7.1-1.5,0-2.5-.3-3.1-.9-.6-.6-.9-1.5-.9-2.7s.3-2,1-2.7c.7-.6,1.6-1,2.8-1,2.3,0,3.4,1.1,3.4,3.3ZM16.9,68.4c0-.5-.1-.9-.4-1.3s-.8-.6-1.5-.6-.8,0-1.1.2-.6.3-.7.6c-.2.2-.3.5-.3.7s0,.2,0,.2.2,0,.3,0h3.6Z"/>
    <path class="st0" d="M27.4,65.7s0,0,0,0c0,0-.1.1-.1.3s0,.3,0,.6v5.7c0,1.4-.3,2.4-.9,3.1-.6.6-1.6.9-2.8.9s-1.3,0-1.9-.2c-.5-.1-1-.2-1.3-.4-.3-.1-.5-.2-.5-.2l.3-1.3v-.4s.1.2.4.4c.3.3.6.5,1.1.7.5.2,1.1.3,1.8.3s1.1-.1,1.4-.3c.3-.2.5-.5.7-.9s.2-.8.2-1.4v-.8s0,0,0,0c-.2.3-.5.5-1,.7-.4.2-.9.3-1.5.3-1.3,0-2.3-.3-2.8-1s-.8-1.5-.8-2.7.3-2.1.8-2.7,1.5-1,2.8-1,1.9.3,2.4.9h0s0-.3,0-.3v-.4h1.8ZM25.1,71.2c.3-.4.5-1.1.5-2s-.2-1.5-.5-2c-.3-.4-.9-.6-1.8-.6s-1.4.2-1.7.7-.5,1.1-.5,2,.2,1.5.5,1.9c.3.4.9.6,1.7.6s1.5-.2,1.8-.6Z"/>
    <path class="st0" d="M34.8,72.7v-.7s0,0,0,0c-.3.3-.8.5-1.3.7-.5.1-1.1.2-1.8.2-1,0-1.8-.2-2.3-.6s-.7-.9-.7-1.6.3-1.3.8-1.6c.5-.4,1.3-.6,2.4-.6s1.3,0,1.8.2c.5.1.8.3,1.1.4,0-.9-.2-1.5-.5-1.9s-.9-.6-1.7-.6-1,0-1.5.2c-.5.1-.8.3-1.1.4-.3.2-.5.3-.6.4v-1.4c.1-.1.6-.3,1.2-.4.6-.1,1.3-.2,2.2-.2,1.2,0,2.2.3,2.7.8.6.5.9,1.3.9,2.5v3c0,.2,0,.4,0,.6,0,.1.1.2.2.3h-1.8ZM34.1,71.5c.5-.2.7-.5.7-.9s-.2-.6-.6-.8c-.4-.2-1-.3-1.8-.3s-1.3,0-1.6.3-.5.5-.5.9.2.7.5.9.8.3,1.5.3,1.4-.1,1.9-.3Z"/>
    <path class="st0" d="M40.3,66.8v4c0,.4,0,.7.2.8s.4.2.7.2.6,0,.8-.2c.2-.1.4-.3.6-.5.2-.2.2-.3.2-.3v1.3c.1,0,0,0-.1.2-.2.1-.4.2-.8.3-.3.1-.7.2-1.2.2-.7,0-1.2-.1-1.5-.4-.3-.3-.5-.8-.5-1.4v-4.2h-1.3v-1c.5,0,.8,0,1.1-.2.3-.1.4-.3.5-.6.1-.3.2-.7.2-1.2h1.1v2h2.9s0,0,0,.2c0,0,0,.2-.1.4,0,.2,0,.3,0,.5h-2.6Z"/>
    <path class="st0" d="M46.5,66.8v4c0,.4,0,.7.2.8s.4.2.7.2.6,0,.8-.2c.2-.1.4-.3.6-.5.2-.2.2-.3.2-.3v1.3c.1,0,0,0-.1.2-.2.1-.4.2-.8.3-.3.1-.7.2-1.2.2-.7,0-1.2-.1-1.5-.4-.3-.3-.5-.8-.5-1.4v-4.2h-1.3v-1c.5,0,.8,0,1.1-.2.3-.1.4-.3.5-.6.1-.3.2-.7.2-1.2h1.1v2h2.9s0,0,0,.2c0,0,0,.2-.1.4,0,.2,0,.3,0,.5h-2.6Z"/>
    <path class="st0" d="M56.1,72.7v-.7s0,0,0,0c-.3.3-.8.5-1.3.7-.5.1-1.1.2-1.8.2-1,0-1.8-.2-2.3-.6s-.7-.9-.7-1.6.3-1.3.8-1.6c.5-.4,1.3-.6,2.4-.6s1.3,0,1.8.2c.5.1.8.3,1.1.4,0-.9-.2-1.5-.5-1.9s-.9-.6-1.7-.6-1,0-1.5.2c-.5.1-.8.3-1.1.4-.3.2-.5.3-.6.4v-1.4c.1-.1.6-.3,1.2-.4.6-.1,1.3-.2,2.2-.2,1.2,0,2.2.3,2.7.8.6.5.9,1.3.9,2.5v3c0,.2,0,.4,0,.6,0,.1.1.2.2.3h-1.8ZM55.4,71.5c.5-.2.7-.5.7-.9s-.2-.6-.6-.8c-.4-.2-1-.3-1.8-.3s-1.3,0-1.6.3-.5.5-.5.9.2.7.5.9.8.3,1.5.3,1.4-.1,1.9-.3Z"/>
    <path class="st0" d="M70.1,72.7s0,0,.1-.1c0,0,0-.1,0-.2s0-.2-.1-.4c-.3-.8-.9-1.4-1.6-1.8-.7-.4-1.7-.7-2.8-.7h-.2c-.2,0-.4,0-.4,0,0,0-.1,0-.1.1,0,0,0,.2,0,.3v2c0,.3,0,.5,0,.6,0,.1,0,.2.2.3,0,0,0,0,0,0h-2.3s0,0,0,0c0,0,.1-.1.1-.3,0-.1,0-.3,0-.6v-7.2c0-.3,0-.5,0-.6s0-.2-.2-.3c0,0,0,0,0,0h4.9c1.3,0,2.2.2,2.8.7.5.5.8,1.2.8,2.1s-.2,1.2-.6,1.6c-.4.5-1,.8-1.8.9h0c1.1.3,2.1,1.2,3,2.6.2.3.3.5.5.7.2.2.3.3.4.3.1,0,.2,0,.2,0h-3.1s0,0,.1,0ZM65,67.8c0,.1,0,.2,0,.3,0,0,0,0,.1,0,0,0,.2,0,.4,0h1.8c1.6,0,2.4-.6,2.4-1.7s-.2-1-.5-1.2c-.4-.2-.9-.4-1.7-.4h-2c-.2,0-.4,0-.4,0,0,0-.1,0-.1,0,0,0,0,.1,0,.3v2.5Z"/>
    <path class="st0" d="M80.5,68.9v.7s-.1,0-.3,0c-.2,0-.7,0-1.4,0h-3.9c0,.8.2,1.3.7,1.8.4.4,1.1.6,1.9.6s1.1,0,1.5-.2c.4-.1.7-.3.9-.4.2-.1.3-.2.3-.2v1.3c.1,0,0,0-.2.2-.3,0-.6.2-1.1.3-.5,0-1,.1-1.7.1-1.5,0-2.5-.3-3.1-.9-.6-.6-.9-1.5-.9-2.7s.3-2,1-2.7c.7-.6,1.6-1,2.8-1,2.3,0,3.4,1.1,3.4,3.3ZM79,68.4c0-.5-.1-.9-.4-1.3s-.8-.6-1.5-.6-.8,0-1.1.2-.6.3-.7.6c-.2.2-.3.5-.3.7s0,.2,0,.2.2,0,.3,0h3.6Z"/>
    <path class="st0" d="M89.5,65.7s0,0,0,0c0,0-.1.1-.1.3s0,.3,0,.6v5.7c0,1.4-.3,2.4-.9,3.1-.6.6-1.6.9-2.8.9s-1.3,0-1.9-.2c-.5-.1-1-.2-1.3-.4-.3-.1-.5-.2-.5-.2l.3-1.3v-.4s.1.2.4.4c.3.3.6.5,1.1.7.5.2,1.1.3,1.8.3s1.1-.1,1.4-.3c.3-.2.5-.5.7-.9s.2-.8.2-1.4v-.8s0,0,0,0c-.2.3-.5.5-1,.7-.4.2-.9.3-1.5.3-1.3,0-2.3-.3-2.8-1s-.8-1.5-.8-2.7.3-2.1.8-2.7,1.5-1,2.8-1,1.9.3,2.4.9h0s0-.3,0-.3v-.4h1.8ZM87.2,71.2c.3-.4.5-1.1.5-2s-.2-1.5-.5-2c-.3-.4-.9-.6-1.8-.6s-1.4.2-1.7.7-.5,1.1-.5,2,.2,1.5.5,1.9c.3.4.9.6,1.7.6s1.5-.2,1.8-.6Z"/>
    <path class="st0" d="M92.8,63.5c0,.2,0,.4-.2.6s-.4.2-.7.2-.5,0-.7-.2-.2-.4-.2-.6,0-.4.2-.6c.2-.2.4-.2.7-.2s.5,0,.7.2c.2.2.2.4.2.6ZM92.8,71.8v-6.1h-1.8s0,0,0,0c0,0,.1.1.1.3,0,.1,0,.3,0,.6v5.2c0,.3,0,.5,0,.6,0,.1,0,.2-.1.3,0,0,0,0,0,0h2.1s0,0,0,0c0,0-.1-.1-.1-.3,0-.1,0-.3,0-.6Z"/>
    <path class="st0" d="M96,68c.1.1.4.2.8.3s1,.2,1.8.3c.8,0,1.4.2,1.9.4.4.2.8.4.9.7.2.3.3.6.3,1,0,.6-.3,1.2-.8,1.5s-1.4.6-2.6.6-1.4,0-2,0c-.5,0-1-.1-1.2-.2-.3,0-.4-.1-.4-.1v-.3l-.3-1.3s.2.1.5.3c.3.2.7.3,1.3.5.6.1,1.2.2,2,.2s1.4,0,1.7-.2.4-.4.4-.7,0-.4-.2-.5-.4-.2-.8-.3c-.4,0-1-.2-1.8-.3-.8,0-1.5-.2-1.9-.4-.5-.2-.8-.4-.9-.7-.2-.3-.3-.6-.3-1.1s.2-1,.7-1.4c.5-.4,1.3-.6,2.5-.6s1.4,0,1.9,0c.5,0,1,.1,1.2.2.3,0,.4.1.4.1v.3l.3,1.1s-.2-.1-.5-.2-.7-.3-1.3-.4c-.6-.1-1.2-.2-2-.2s-1.2,0-1.4.2c-.3.1-.4.4-.4.7s0,.4.2.5Z"/>
    <path class="st0" d="M105.4,66.8v4c0,.4,0,.7.2.8s.4.2.7.2.6,0,.8-.2c.2-.1.4-.3.6-.5.2-.2.2-.3.2-.3v1.3c.1,0,0,0-.1.2-.2.1-.4.2-.8.3-.3.1-.7.2-1.2.2-.7,0-1.2-.1-1.5-.4-.3-.3-.5-.8-.5-1.4v-4.2h-1.3v-1c.5,0,.8,0,1.1-.2.3-.1.4-.3.5-.6.1-.3.2-.7.2-1.2h1.1v2h2.9s0,0,0,.2c0,0,0,.2-.1.4,0,.2,0,.3,0,.5h-2.6Z"/>
    <path class="st0" d="M116.3,68.9v.7s-.1,0-.3,0c-.2,0-.7,0-1.4,0h-3.9c0,.8.2,1.3.7,1.8.4.4,1.1.6,1.9.6s1.1,0,1.5-.2c.4-.1.7-.3.9-.4.2-.1.3-.2.3-.2v1.3c.1,0,0,0-.2.2-.3,0-.6.2-1.1.3-.5,0-1,.1-1.7.1-1.5,0-2.5-.3-3.1-.9-.6-.6-.9-1.5-.9-2.7s.3-2,1-2.7c.7-.6,1.6-1,2.8-1,2.3,0,3.4,1.1,3.4,3.3ZM114.8,68.4c0-.5-.1-.9-.4-1.3s-.8-.6-1.5-.6-.8,0-1.1.2-.6.3-.7.6c-.2.2-.3.5-.3.7s0,.2,0,.2.2,0,.3,0h3.6Z"/>
    <path class="st0" d="M122.6,65.7c.3,0,.5.2.7.3.2.1.3.2.3.2l-.3,1.3v.4s-.1-.1-.3-.3c-.2-.2-.5-.4-.9-.5s-.7-.2-1.2-.2-.8.2-1.1.5c-.3.3-.4.9-.4,1.6v3c0,.3,0,.5,0,.6,0,.1,0,.2.1.3,0,0,0,0,0,0h-2.1s0,0,0,0c0,0,.1-.1.1-.3,0-.1,0-.3,0-.6v-5c0-.3,0-.5,0-.6,0-.1,0-.2-.1-.3,0,0,0,0,0,0,.4,0,.7,0,.9,0,.3,0,.5,0,.6-.1s.2,0,.3,0v1s0,0,0,0c.5-.7,1.3-1,2.2-1s.7,0,1,.1Z"/>
    <path class="st0" d="M126.2,68c.1.1.4.2.8.3s1,.2,1.8.3c.8,0,1.4.2,1.9.4.4.2.8.4.9.7.2.3.3.6.3,1,0,.6-.3,1.2-.8,1.5s-1.4.6-2.6.6-1.4,0-2,0c-.5,0-1-.1-1.2-.2-.3,0-.4-.1-.4-.1v-.3l-.3-1.3s.2.1.5.3c.3.2.7.3,1.3.5.6.1,1.2.2,2,.2s1.4,0,1.7-.2.4-.4.4-.7,0-.4-.2-.5-.4-.2-.8-.3c-.4,0-1-.2-1.8-.3-.8,0-1.5-.2-1.9-.4-.5-.2-.8-.4-.9-.7-.2-.3-.3-.6-.3-1.1s.2-1,.7-1.4c.5-.4,1.3-.6,2.5-.6s1.4,0,1.9,0c.5,0,1,.1,1.2.2.3,0,.4.1.4.1v.3l.3,1.1s-.2-.1-.5-.2-.7-.3-1.3-.4c-.6-.1-1.2-.2-2-.2s-1.2,0-1.4.2c-.3.1-.4.4-.4.7s0,.4.2.5Z"/>
  </g>
</svg>